<svg xmlns="http://www.w3.org/2000/svg" version="1.1" xmlns:xlink="http://www.w3.org/1999/xlink" xmlns:svgjs="http://svgjs.dev/svgjs" width="1500" height="1682" viewBox="0 0 1500 1682"><g transform="matrix(1,0,0,1,-2.3364485981305734,0)"><svg viewBox="0 0 321 360" data-background-color="#ffffff" preserveAspectRatio="xMidYMid meet" height="1682" width="1500" xmlns="http://www.w3.org/2000/svg" xmlns:xlink="http://www.w3.org/1999/xlink"><g id="tight-bounds" transform="matrix(1,0,0,1,0.5,0)"><svg viewBox="0 0 320 360" height="360" width="320"><g><svg></svg></g><g><svg viewBox="0 0 320 360" height="360" width="320"><g><path d="M20.961 227.22l3.726 4.658-1.863-6.056c-0.466-2.795-3.726 0.466-1.863 1.398M25.153 224.425c1.397 2.329 2.795 4.658 2.795 6.987 0 3.261 2.795 4.658 5.123 5.589-3.261-3.726-5.124-13.974-7.918-12.576M204.017 26.929c7.918 0 15.371-0.932 23.756 0.931 20.495 5.124 37.729 15.371 49.374 29.811l32.606 52.169c1.397 13.042 4.192 27.482 3.726 43.319 3.261 0 2.795-4.658 6.521-5.59-3.726 9.316-5.59 20.961-6.521 34.469-2.329-7.453 0-18.632 0.466-24.687-3.261 5.124-5.124 1.397-5.124-0.932 0.466-3.726-1.397-3.261-2.795-4.658-5.124-4.658-8.384-9.782-12.11-17.7 2.329-6.055 2.795-14.905-4.658-19.563-2.329-1.397-5.124-3.726-6.521-7.453-1.863-5.124-5.124-11.179-4.193-19.097 0.466-2.329-6.987 5.124-11.179 1.863-18.166-12.576-36.332-27.016-58.224-39.127-11.645 0-20.029-4.192-24.221-9.316-3.726-4.658-0.932-10.713 4.658-11.179 3.261 0 6.987-0.932 9.782 0.932 0.466-1.863 2.329-4.192 4.657-4.192M157.904 16.215l0.932 0.466c4.658 0.932 6.987 7.453 12.11 5.124 0 3.261 0.466 6.521-0.466 8.85-1.397 3.726-5.59 3.726-8.85 3.726-31.208-1.863-49.374 11.179-68.471 22.358-5.124 3.261-10.713 5.59-14.906 9.782-20.029 18.632-41.921 35.866-47.045 70.335l-4.192 38.195c-0.466 4.192-5.124 8.384-4.192 13.508l3.26 22.824c-3.261-3.261-5.124 0.932-4.192 2.795 0.466 1.397 2.329 6.055 5.124 1.863 3.726 6.987 7.453 20.495 12.576 26.55 15.837 18.632 36.332 35.4 53.101 52.169 4.192-0.932 7.453-0.932 8.384-3.727 1.397 2.795-1.397 5.59-3.726 6.056 7.453 4.658 15.837 8.85 27.016 9.781 14.44 0.932 27.948 3.261 40.524 6.522 6.521-1.863 13.042-2.795 20.029-3.261 2.329 0 3.726-3.726 6.521-4.658l0.466-4.658c2.795 4.192 2.329-1.397 0.466-4.192 3.261 2.795 4.192 5.124 5.589 6.987 0-1.397 3.726-6.521 3.727-0.466l0.931-6.055c1.397-0.932 1.863 5.124 3.261 0.931 1.397-4.192 4.192-0.932 6.987-2.329-0.932 1.863-0.466 5.59 2.794 3.261l3.727-3.261c2.329 5.59 6.055 3.261 7.918 2.329 20.495-13.042 40.99-28.413 60.553-43.784l-0.466 6.055 2.329-7.453c2.329 2.329 4.192 0.466 5.124-0.931 2.795-4.658 6.521-9.316 12.577-13.508-7.453 20.029-16.303 35.866-27.482 48.908l-4.658 5.59c0 3.261-0.932 7.453-4.658 7.918-1.863 0.466-5.59-0.932-8.384 1.863-1.397 1.863 3.261 5.59-0.466 2.795-3.261-2.329-6.521 0-10.248 0.932-2.795 0.932 1.863 3.726 2.795 5.589 0.932 1.863 1.863 3.726 1.398 6.056l-5.124-5.59c-6.055 3.261-9.782 9.316-14.906 13.974-2.329 1.863-1.397 5.124-1.397 7.918-3.261 0-6.987-0.932-8.85 0.932-1.397 1.863-0.932 4.658-0.932 7.453-4.658-0.466-5.124-7.453-9.315-6.056-4.192 0.932-8.85 1.397-12.577 3.727 2.795 5.59-4.658 2.329-3.726 3.26-6.987-4.192-13.042-7.453-20.495-4.658-15.837-5.124-35.4-2.795-49.84-0.931 0-2.329 0.466-4.658-0.466-5.124-0.932 2.329-3.726 1.397-3.26 1.397-8.85-6.055-17.7-9.782-27.016-14.905-8.384 0.932-16.303-3.261-18.632-5.59-6.521-6.055-13.974-2.795-20.029-4.192-13.042-3.261-17.7-16.769-19.098-26.084-0.932-4.658-4.658-6.521-6.055-6.056-6.055-19.563-15.371-37.263-22.824-55.429-1.863-4.658-1.397-9.316-1.397-14.44 2.329 0.932 4.658 0.466 4.192-2.794-2.329-15.371-7.918-27.016-13.974-38.195 3.261-15.837 3.726-34.469 11.179-48.443 6.521-12.576 18.632-19.098 27.016-29.811 2.795-3.726 2.795-8.85 5.59-12.11 9.316-9.316 18.632-19.098 28.879-27.482 4.658-3.726 10.247 0 17.234-1.397 2.329-8.384 11.645-15.837 20.495-13.508 3.726 0.932 11.179-8.85 13.508-9.782 3.726-1.397 1.863 3.726 1.863 6.987 8.85-6.987 20.961-10.713 32.14-14.906" fill="#ff4136" fill-rule="nonzero" stroke="none" stroke-width="1" stroke-linecap="butt" stroke-linejoin="miter" stroke-miterlimit="10" stroke-dasharray="" stroke-dashoffset="0" font-family="none" font-weight="none" font-size="none" text-anchor="none" style="mix-blend-mode: normal" data-fill-palette-color="tertiary"></path></g><g transform="matrix(1,0,0,1,94.13667860460848,90)"><svg viewBox="0 0 131.72664279078305 180" height="180" width="131.72664279078305"><g><svg viewBox="0 0 192 262.3615030931174" height="180" width="131.72664279078305"><g><svg viewBox="0 0 192 262.3615030931174" height="262.3615030931174" width="192"><g id="textblocktransform"><svg viewBox="0 0 192 262.3615030931174" height="262.3615030931174" width="192" id="textblock"><g><svg viewBox="0 0 192 171.91902834008096" height="171.91902834008096" width="192"><g transform="matrix(1,0,0,1,0,0)"><svg width="192" viewBox="0.22 -32.4 36.18 32.4" height="171.91902834008096" data-palette-color="url(#12895ae9-e20a-44f6-a992-5e53308a0334)"><g class="wordmark-text-0" data-fill-palette-color="primary" id="text-0"></g></svg></g></svg></g><g transform="matrix(1,0,0,1,0,212.5049848744939)"><svg viewBox="0 0 192 49.85651821862347" height="49.85651821862347" width="192"><g transform="matrix(1,0,0,1,0,0)"><svg width="192" viewBox="2.5 -39.65 194.48 50.5" height="49.85651821862347" data-palette-color="url(#ccc985dc-7c8f-4831-9d7f-a233a4a5be4f)"></svg></g></svg></g></svg></g></svg></g><g></g></svg></g></svg></g></svg></g><defs></defs><mask id="126d4319-f26f-45a8-8d34-e358192b5283"><g id="SvgjsG3651"><svg viewBox="0 0 320 360" height="360" width="320"><g><svg></svg></g><g><svg viewBox="0 0 320 360" height="360" width="320"><g><path d="M20.961 227.22l3.726 4.658-1.863-6.056c-0.466-2.795-3.726 0.466-1.863 1.398M25.153 224.425c1.397 2.329 2.795 4.658 2.795 6.987 0 3.261 2.795 4.658 5.123 5.589-3.261-3.726-5.124-13.974-7.918-12.576M204.017 26.929c7.918 0 15.371-0.932 23.756 0.931 20.495 5.124 37.729 15.371 49.374 29.811l32.606 52.169c1.397 13.042 4.192 27.482 3.726 43.319 3.261 0 2.795-4.658 6.521-5.59-3.726 9.316-5.59 20.961-6.521 34.469-2.329-7.453 0-18.632 0.466-24.687-3.261 5.124-5.124 1.397-5.124-0.932 0.466-3.726-1.397-3.261-2.795-4.658-5.124-4.658-8.384-9.782-12.11-17.7 2.329-6.055 2.795-14.905-4.658-19.563-2.329-1.397-5.124-3.726-6.521-7.453-1.863-5.124-5.124-11.179-4.193-19.097 0.466-2.329-6.987 5.124-11.179 1.863-18.166-12.576-36.332-27.016-58.224-39.127-11.645 0-20.029-4.192-24.221-9.316-3.726-4.658-0.932-10.713 4.658-11.179 3.261 0 6.987-0.932 9.782 0.932 0.466-1.863 2.329-4.192 4.657-4.192M157.904 16.215l0.932 0.466c4.658 0.932 6.987 7.453 12.11 5.124 0 3.261 0.466 6.521-0.466 8.85-1.397 3.726-5.59 3.726-8.85 3.726-31.208-1.863-49.374 11.179-68.471 22.358-5.124 3.261-10.713 5.59-14.906 9.782-20.029 18.632-41.921 35.866-47.045 70.335l-4.192 38.195c-0.466 4.192-5.124 8.384-4.192 13.508l3.26 22.824c-3.261-3.261-5.124 0.932-4.192 2.795 0.466 1.397 2.329 6.055 5.124 1.863 3.726 6.987 7.453 20.495 12.576 26.55 15.837 18.632 36.332 35.4 53.101 52.169 4.192-0.932 7.453-0.932 8.384-3.727 1.397 2.795-1.397 5.59-3.726 6.056 7.453 4.658 15.837 8.85 27.016 9.781 14.44 0.932 27.948 3.261 40.524 6.522 6.521-1.863 13.042-2.795 20.029-3.261 2.329 0 3.726-3.726 6.521-4.658l0.466-4.658c2.795 4.192 2.329-1.397 0.466-4.192 3.261 2.795 4.192 5.124 5.589 6.987 0-1.397 3.726-6.521 3.727-0.466l0.931-6.055c1.397-0.932 1.863 5.124 3.261 0.931 1.397-4.192 4.192-0.932 6.987-2.329-0.932 1.863-0.466 5.59 2.794 3.261l3.727-3.261c2.329 5.59 6.055 3.261 7.918 2.329 20.495-13.042 40.99-28.413 60.553-43.784l-0.466 6.055 2.329-7.453c2.329 2.329 4.192 0.466 5.124-0.931 2.795-4.658 6.521-9.316 12.577-13.508-7.453 20.029-16.303 35.866-27.482 48.908l-4.658 5.59c0 3.261-0.932 7.453-4.658 7.918-1.863 0.466-5.59-0.932-8.384 1.863-1.397 1.863 3.261 5.59-0.466 2.795-3.261-2.329-6.521 0-10.248 0.932-2.795 0.932 1.863 3.726 2.795 5.589 0.932 1.863 1.863 3.726 1.398 6.056l-5.124-5.59c-6.055 3.261-9.782 9.316-14.906 13.974-2.329 1.863-1.397 5.124-1.397 7.918-3.261 0-6.987-0.932-8.85 0.932-1.397 1.863-0.932 4.658-0.932 7.453-4.658-0.466-5.124-7.453-9.315-6.056-4.192 0.932-8.85 1.397-12.577 3.727 2.795 5.59-4.658 2.329-3.726 3.26-6.987-4.192-13.042-7.453-20.495-4.658-15.837-5.124-35.4-2.795-49.84-0.931 0-2.329 0.466-4.658-0.466-5.124-0.932 2.329-3.726 1.397-3.26 1.397-8.85-6.055-17.7-9.782-27.016-14.905-8.384 0.932-16.303-3.261-18.632-5.59-6.521-6.055-13.974-2.795-20.029-4.192-13.042-3.261-17.7-16.769-19.098-26.084-0.932-4.658-4.658-6.521-6.055-6.056-6.055-19.563-15.371-37.263-22.824-55.429-1.863-4.658-1.397-9.316-1.397-14.44 2.329 0.932 4.658 0.466 4.192-2.794-2.329-15.371-7.918-27.016-13.974-38.195 3.261-15.837 3.726-34.469 11.179-48.443 6.521-12.576 18.632-19.098 27.016-29.811 2.795-3.726 2.795-8.85 5.59-12.11 9.316-9.316 18.632-19.098 28.879-27.482 4.658-3.726 10.247 0 17.234-1.397 2.329-8.384 11.645-15.837 20.495-13.508 3.726 0.932 11.179-8.85 13.508-9.782 3.726-1.397 1.863 3.726 1.863 6.987 8.85-6.987 20.961-10.713 32.14-14.906" fill="black" fill-rule="nonzero" stroke="none" stroke-width="1" stroke-linecap="butt" stroke-linejoin="miter" stroke-miterlimit="10" stroke-dasharray="" stroke-dashoffset="0" font-family="none" font-weight="none" font-size="none" text-anchor="none" style="mix-blend-mode: normal"></path></g><g transform="matrix(1,0,0,1,94.13667860460848,90)"><svg viewBox="0 0 131.72664279078305 180" height="180" width="131.72664279078305"><g><svg viewBox="0 0 192 262.3615030931174" height="180" width="131.72664279078305"><g><svg viewBox="0 0 192 262.3615030931174" height="262.3615030931174" width="192"><g id="SvgjsG3650"><svg viewBox="0 0 192 262.3615030931174" height="262.3615030931174" width="192" id="SvgjsSvg3649"><g><svg viewBox="0 0 192 171.91902834008096" height="171.91902834008096" width="192"><g transform="matrix(1,0,0,1,0,0)"><svg width="192" viewBox="0.22 -32.4 36.18 32.4" height="171.91902834008096" data-palette-color="url(#12895ae9-e20a-44f6-a992-5e53308a0334)"><g class="wordmark-text-0" data-fill-palette-color="primary" id="SvgjsG3648"><path d="M25.49 0L24.12-3.54 13.53-3.54 15.77-9.96 21.63-9.96 12.96-32.4 23.49-32.4 36.4 0 25.49 0ZM16.58-18.07L10.64 0 0.22 0 11.79-30.93 16.58-18.07Z" fill="white"></path></g></svg></g></svg></g><g transform="matrix(1,0,0,1,0,212.5049848744939)"><svg viewBox="0 0 192 49.85651821862347" height="49.85651821862347" width="192"><g transform="matrix(1,0,0,1,0,0)"><svg width="192" viewBox="2.5 -39.65 194.48 50.5" height="49.85651821862347" data-palette-color="url(#ccc985dc-7c8f-4831-9d7f-a233a4a5be4f)"><path d="M24.35-34.55L24.35-9.7Q24.35-5.15 21.53-2.23 18.7 0.7 13.45 0.7L13.45 0.7Q8.1 0.7 5.3-2.18 2.5-5.05 2.5-9.7L2.5-9.7 2.5-34.55 8.85-34.55 8.85-10Q8.85-7.1 9.95-5.68 11.05-4.25 13.45-4.25L13.45-4.25Q15.8-4.25 16.9-5.68 18-7.1 18-10L18-10 18-34.55 24.35-34.55ZM57.96-27.15Q61.86-27.15 63.86-23.58 65.86-20 65.86-13.3L65.86-13.3Q65.86-6.8 63.58-3.03 61.31 0.75 57.26 0.75L57.26 0.75Q54.06 0.75 51.91-2.1L51.91-2.1 51.91 10.15 45.76 10.85 45.76-26.45 51.21-26.45 51.46-23.25Q52.76-25.25 54.36-26.2 55.96-27.15 57.96-27.15L57.96-27.15ZM55.61-3.95Q57.51-3.95 58.51-6.13 59.51-8.3 59.51-13.25L59.51-13.25Q59.51-18.45 58.66-20.5 57.81-22.55 56.01-22.55L56.01-22.55Q53.71-22.55 51.91-19.25L51.91-19.25 51.91-6.45Q53.51-3.95 55.61-3.95L55.61-3.95ZM98.16-27.1Q99.31-27.1 100.21-26.75L100.21-26.75 99.21-20.85Q98.21-21.1 97.36-21.1L97.36-21.1Q95.46-21.1 94.36-19.45 93.26-17.8 92.66-14.55L92.66-14.55 92.66 0 86.51 0 86.51-26.45 91.86-26.45 92.31-21.85Q94.16-27.1 98.16-27.1L98.16-27.1ZM137.97-13.85Q137.97-13.4 137.82-11.3L137.82-11.3 124.17-11.3Q124.37-7.2 125.59-5.58 126.82-3.95 129.07-3.95L129.07-3.95Q130.62-3.95 131.87-4.48 133.12-5 134.57-6.15L134.57-6.15 137.12-2.65Q133.62 0.75 128.72 0.75L128.72 0.75Q123.52 0.75 120.74-2.85 117.97-6.45 117.97-13L117.97-13Q117.97-19.55 120.62-23.35 123.27-27.15 128.12-27.15L128.12-27.15Q132.77-27.15 135.37-23.78 137.97-20.4 137.97-13.85L137.97-13.85ZM131.97-15.3L131.97-15.65Q131.97-19.4 131.07-21.13 130.17-22.85 128.17-22.85L128.17-22.85Q126.32-22.85 125.34-21.18 124.37-19.5 124.17-15.3L124.17-15.3 131.97-15.3ZM169.47-5L171.62-1.2Q169.17 0.75 165.87 0.75L165.87 0.75Q162.42 0.75 160.62-1.23 158.82-3.2 158.82-6.6L158.82-6.6 158.82-22 155.72-22 155.72-26.45 158.82-26.45 158.82-32.3 164.97-33.05 164.97-26.45 169.97-26.45 169.37-22 164.97-22 164.97-6.6Q164.97-4.2 167.02-4.2L167.02-4.2Q167.67-4.2 168.17-4.38 168.67-4.55 169.47-5L169.47-5ZM190.23-26.45L196.38-26.45 196.38 0 190.23 0 190.23-26.45ZM193.28-39.65Q194.93-39.65 195.95-38.6 196.98-37.55 196.98-35.9L196.98-35.9Q196.98-34.3 195.95-33.25 194.93-32.2 193.28-32.2L193.28-32.2Q191.63-32.2 190.6-33.25 189.58-34.3 189.58-35.9L189.58-35.9Q189.58-37.55 190.6-38.6 191.63-39.65 193.28-39.65L193.28-39.65Z" opacity="1" transform="matrix(1,0,0,1,0,0)" fill="black" class="slogan-text-1" id="SvgjsPath3647"></path></svg></g></svg></g></svg></g></svg></g><g></g></svg></g></svg></g></svg></g><defs><mask></mask></defs></svg><rect width="320" height="360" fill="black" stroke="none" visibility="hidden"></rect></g></mask><linearGradient x1="0" x2="1" y1="0.5" y2="0.5" id="12895ae9-e20a-44f6-a992-5e53308a0334"><stop stop-color="#ffa62e" offset="0"></stop><stop stop-color="#f71b3d" offset="1"></stop></linearGradient><rect width="320.00000000000006" height="360" fill="url(#12895ae9-e20a-44f6-a992-5e53308a0334)" mask="url(#126d4319-f26f-45a8-8d34-e358192b5283)" data-fill-palette-color="primary"></rect><mask id="436c783b-5789-4af5-898e-119d5516beb5"><g id="SvgjsG3661"><svg viewBox="0 0 320 360" height="360" width="320"><g><svg></svg></g><g><svg viewBox="0 0 320 360" height="360" width="320"><g><path d="M20.961 227.22l3.726 4.658-1.863-6.056c-0.466-2.795-3.726 0.466-1.863 1.398M25.153 224.425c1.397 2.329 2.795 4.658 2.795 6.987 0 3.261 2.795 4.658 5.123 5.589-3.261-3.726-5.124-13.974-7.918-12.576M204.017 26.929c7.918 0 15.371-0.932 23.756 0.931 20.495 5.124 37.729 15.371 49.374 29.811l32.606 52.169c1.397 13.042 4.192 27.482 3.726 43.319 3.261 0 2.795-4.658 6.521-5.59-3.726 9.316-5.59 20.961-6.521 34.469-2.329-7.453 0-18.632 0.466-24.687-3.261 5.124-5.124 1.397-5.124-0.932 0.466-3.726-1.397-3.261-2.795-4.658-5.124-4.658-8.384-9.782-12.11-17.7 2.329-6.055 2.795-14.905-4.658-19.563-2.329-1.397-5.124-3.726-6.521-7.453-1.863-5.124-5.124-11.179-4.193-19.097 0.466-2.329-6.987 5.124-11.179 1.863-18.166-12.576-36.332-27.016-58.224-39.127-11.645 0-20.029-4.192-24.221-9.316-3.726-4.658-0.932-10.713 4.658-11.179 3.261 0 6.987-0.932 9.782 0.932 0.466-1.863 2.329-4.192 4.657-4.192M157.904 16.215l0.932 0.466c4.658 0.932 6.987 7.453 12.11 5.124 0 3.261 0.466 6.521-0.466 8.85-1.397 3.726-5.59 3.726-8.85 3.726-31.208-1.863-49.374 11.179-68.471 22.358-5.124 3.261-10.713 5.59-14.906 9.782-20.029 18.632-41.921 35.866-47.045 70.335l-4.192 38.195c-0.466 4.192-5.124 8.384-4.192 13.508l3.26 22.824c-3.261-3.261-5.124 0.932-4.192 2.795 0.466 1.397 2.329 6.055 5.124 1.863 3.726 6.987 7.453 20.495 12.576 26.55 15.837 18.632 36.332 35.4 53.101 52.169 4.192-0.932 7.453-0.932 8.384-3.727 1.397 2.795-1.397 5.59-3.726 6.056 7.453 4.658 15.837 8.85 27.016 9.781 14.44 0.932 27.948 3.261 40.524 6.522 6.521-1.863 13.042-2.795 20.029-3.261 2.329 0 3.726-3.726 6.521-4.658l0.466-4.658c2.795 4.192 2.329-1.397 0.466-4.192 3.261 2.795 4.192 5.124 5.589 6.987 0-1.397 3.726-6.521 3.727-0.466l0.931-6.055c1.397-0.932 1.863 5.124 3.261 0.931 1.397-4.192 4.192-0.932 6.987-2.329-0.932 1.863-0.466 5.59 2.794 3.261l3.727-3.261c2.329 5.59 6.055 3.261 7.918 2.329 20.495-13.042 40.99-28.413 60.553-43.784l-0.466 6.055 2.329-7.453c2.329 2.329 4.192 0.466 5.124-0.931 2.795-4.658 6.521-9.316 12.577-13.508-7.453 20.029-16.303 35.866-27.482 48.908l-4.658 5.59c0 3.261-0.932 7.453-4.658 7.918-1.863 0.466-5.59-0.932-8.384 1.863-1.397 1.863 3.261 5.59-0.466 2.795-3.261-2.329-6.521 0-10.248 0.932-2.795 0.932 1.863 3.726 2.795 5.589 0.932 1.863 1.863 3.726 1.398 6.056l-5.124-5.59c-6.055 3.261-9.782 9.316-14.906 13.974-2.329 1.863-1.397 5.124-1.397 7.918-3.261 0-6.987-0.932-8.85 0.932-1.397 1.863-0.932 4.658-0.932 7.453-4.658-0.466-5.124-7.453-9.315-6.056-4.192 0.932-8.85 1.397-12.577 3.727 2.795 5.59-4.658 2.329-3.726 3.26-6.987-4.192-13.042-7.453-20.495-4.658-15.837-5.124-35.4-2.795-49.84-0.931 0-2.329 0.466-4.658-0.466-5.124-0.932 2.329-3.726 1.397-3.26 1.397-8.85-6.055-17.7-9.782-27.016-14.905-8.384 0.932-16.303-3.261-18.632-5.59-6.521-6.055-13.974-2.795-20.029-4.192-13.042-3.261-17.7-16.769-19.098-26.084-0.932-4.658-4.658-6.521-6.055-6.056-6.055-19.563-15.371-37.263-22.824-55.429-1.863-4.658-1.397-9.316-1.397-14.44 2.329 0.932 4.658 0.466 4.192-2.794-2.329-15.371-7.918-27.016-13.974-38.195 3.261-15.837 3.726-34.469 11.179-48.443 6.521-12.576 18.632-19.098 27.016-29.811 2.795-3.726 2.795-8.85 5.59-12.11 9.316-9.316 18.632-19.098 28.879-27.482 4.658-3.726 10.247 0 17.234-1.397 2.329-8.384 11.645-15.837 20.495-13.508 3.726 0.932 11.179-8.85 13.508-9.782 3.726-1.397 1.863 3.726 1.863 6.987 8.85-6.987 20.961-10.713 32.14-14.906" fill="black" fill-rule="nonzero" stroke="none" stroke-width="1" stroke-linecap="butt" stroke-linejoin="miter" stroke-miterlimit="10" stroke-dasharray="" stroke-dashoffset="0" font-family="none" font-weight="none" font-size="none" text-anchor="none" style="mix-blend-mode: normal"></path></g><g transform="matrix(1,0,0,1,94.13667860460848,90)"><svg viewBox="0 0 131.72664279078305 180" height="180" width="131.72664279078305"><g><svg viewBox="0 0 192 262.3615030931174" height="180" width="131.72664279078305"><g><svg viewBox="0 0 192 262.3615030931174" height="262.3615030931174" width="192"><g id="SvgjsG3660"><svg viewBox="0 0 192 262.3615030931174" height="262.3615030931174" width="192" id="SvgjsSvg3659"><g><svg viewBox="0 0 192 171.91902834008096" height="171.91902834008096" width="192"><g transform="matrix(1,0,0,1,0,0)"><svg width="192" viewBox="0.22 -32.4 36.18 32.4" height="171.91902834008096" data-palette-color="url(#12895ae9-e20a-44f6-a992-5e53308a0334)"><g class="wordmark-text-0" data-fill-palette-color="primary" id="SvgjsG3658"></g></svg></g></svg></g><g transform="matrix(1,0,0,1,0,212.5049848744939)"><svg viewBox="0 0 192 49.85651821862347" height="49.85651821862347" width="192"><g transform="matrix(1,0,0,1,0,0)"><svg width="192" viewBox="2.5 -39.65 194.48 50.5" height="49.85651821862347" data-palette-color="url(#ccc985dc-7c8f-4831-9d7f-a233a4a5be4f)"><path d="M24.35-34.55L24.35-9.7Q24.35-5.15 21.53-2.23 18.7 0.7 13.45 0.7L13.45 0.7Q8.1 0.7 5.3-2.18 2.5-5.05 2.5-9.7L2.5-9.7 2.5-34.55 8.85-34.55 8.85-10Q8.85-7.1 9.95-5.68 11.05-4.25 13.45-4.25L13.45-4.25Q15.8-4.25 16.9-5.68 18-7.1 18-10L18-10 18-34.55 24.35-34.55ZM57.96-27.15Q61.86-27.15 63.86-23.58 65.86-20 65.86-13.3L65.86-13.3Q65.86-6.8 63.58-3.03 61.31 0.75 57.26 0.75L57.26 0.75Q54.06 0.75 51.91-2.1L51.91-2.1 51.91 10.15 45.76 10.85 45.76-26.45 51.21-26.45 51.46-23.25Q52.76-25.25 54.36-26.2 55.96-27.15 57.96-27.15L57.96-27.15ZM55.61-3.95Q57.51-3.95 58.51-6.13 59.51-8.3 59.51-13.25L59.51-13.25Q59.51-18.45 58.66-20.5 57.81-22.55 56.01-22.55L56.01-22.55Q53.71-22.55 51.91-19.25L51.91-19.25 51.91-6.45Q53.51-3.95 55.61-3.95L55.61-3.95ZM98.16-27.1Q99.31-27.1 100.21-26.75L100.21-26.75 99.21-20.85Q98.21-21.1 97.36-21.1L97.36-21.1Q95.46-21.1 94.36-19.45 93.26-17.8 92.66-14.55L92.66-14.55 92.66 0 86.51 0 86.51-26.45 91.86-26.45 92.31-21.85Q94.16-27.1 98.16-27.1L98.16-27.1ZM137.97-13.85Q137.97-13.4 137.82-11.3L137.82-11.3 124.17-11.3Q124.37-7.2 125.59-5.58 126.82-3.95 129.07-3.95L129.07-3.95Q130.62-3.95 131.87-4.48 133.12-5 134.57-6.15L134.57-6.15 137.12-2.65Q133.62 0.75 128.72 0.75L128.72 0.75Q123.52 0.75 120.74-2.85 117.97-6.45 117.97-13L117.97-13Q117.97-19.55 120.62-23.35 123.27-27.15 128.12-27.15L128.12-27.15Q132.77-27.15 135.37-23.78 137.97-20.4 137.97-13.85L137.97-13.85ZM131.97-15.3L131.97-15.65Q131.97-19.4 131.07-21.13 130.17-22.85 128.17-22.85L128.17-22.85Q126.32-22.85 125.34-21.18 124.37-19.5 124.17-15.3L124.17-15.3 131.97-15.3ZM169.47-5L171.62-1.2Q169.17 0.75 165.87 0.75L165.87 0.75Q162.42 0.75 160.62-1.23 158.82-3.2 158.82-6.6L158.82-6.6 158.82-22 155.72-22 155.72-26.45 158.82-26.45 158.82-32.3 164.97-33.05 164.97-26.45 169.97-26.45 169.37-22 164.97-22 164.97-6.6Q164.97-4.2 167.02-4.2L167.02-4.2Q167.67-4.2 168.17-4.38 168.67-4.55 169.47-5L169.47-5ZM190.23-26.45L196.38-26.45 196.38 0 190.23 0 190.23-26.45ZM193.28-39.65Q194.93-39.65 195.95-38.6 196.98-37.55 196.98-35.9L196.98-35.9Q196.98-34.3 195.95-33.25 194.93-32.2 193.28-32.2L193.28-32.2Q191.63-32.2 190.6-33.25 189.58-34.3 189.58-35.9L189.58-35.9Q189.58-37.55 190.6-38.6 191.63-39.65 193.28-39.65L193.28-39.65Z" opacity="1" transform="matrix(1,0,0,1,0,0)" fill="white" class="slogan-text-1" id="SvgjsPath3657"></path></svg></g></svg></g></svg></g></svg></g><g></g></svg></g></svg></g></svg></g><defs><mask></mask></defs><mask><g id="SvgjsG3656"><svg viewBox="0 0 320 360" height="360" width="320"><g><svg></svg></g><g><svg viewBox="0 0 320 360" height="360" width="320"><g><path d="M20.961 227.22l3.726 4.658-1.863-6.056c-0.466-2.795-3.726 0.466-1.863 1.398M25.153 224.425c1.397 2.329 2.795 4.658 2.795 6.987 0 3.261 2.795 4.658 5.123 5.589-3.261-3.726-5.124-13.974-7.918-12.576M204.017 26.929c7.918 0 15.371-0.932 23.756 0.931 20.495 5.124 37.729 15.371 49.374 29.811l32.606 52.169c1.397 13.042 4.192 27.482 3.726 43.319 3.261 0 2.795-4.658 6.521-5.59-3.726 9.316-5.59 20.961-6.521 34.469-2.329-7.453 0-18.632 0.466-24.687-3.261 5.124-5.124 1.397-5.124-0.932 0.466-3.726-1.397-3.261-2.795-4.658-5.124-4.658-8.384-9.782-12.11-17.7 2.329-6.055 2.795-14.905-4.658-19.563-2.329-1.397-5.124-3.726-6.521-7.453-1.863-5.124-5.124-11.179-4.193-19.097 0.466-2.329-6.987 5.124-11.179 1.863-18.166-12.576-36.332-27.016-58.224-39.127-11.645 0-20.029-4.192-24.221-9.316-3.726-4.658-0.932-10.713 4.658-11.179 3.261 0 6.987-0.932 9.782 0.932 0.466-1.863 2.329-4.192 4.657-4.192M157.904 16.215l0.932 0.466c4.658 0.932 6.987 7.453 12.11 5.124 0 3.261 0.466 6.521-0.466 8.85-1.397 3.726-5.59 3.726-8.85 3.726-31.208-1.863-49.374 11.179-68.471 22.358-5.124 3.261-10.713 5.59-14.906 9.782-20.029 18.632-41.921 35.866-47.045 70.335l-4.192 38.195c-0.466 4.192-5.124 8.384-4.192 13.508l3.26 22.824c-3.261-3.261-5.124 0.932-4.192 2.795 0.466 1.397 2.329 6.055 5.124 1.863 3.726 6.987 7.453 20.495 12.576 26.55 15.837 18.632 36.332 35.4 53.101 52.169 4.192-0.932 7.453-0.932 8.384-3.727 1.397 2.795-1.397 5.59-3.726 6.056 7.453 4.658 15.837 8.85 27.016 9.781 14.44 0.932 27.948 3.261 40.524 6.522 6.521-1.863 13.042-2.795 20.029-3.261 2.329 0 3.726-3.726 6.521-4.658l0.466-4.658c2.795 4.192 2.329-1.397 0.466-4.192 3.261 2.795 4.192 5.124 5.589 6.987 0-1.397 3.726-6.521 3.727-0.466l0.931-6.055c1.397-0.932 1.863 5.124 3.261 0.931 1.397-4.192 4.192-0.932 6.987-2.329-0.932 1.863-0.466 5.59 2.794 3.261l3.727-3.261c2.329 5.59 6.055 3.261 7.918 2.329 20.495-13.042 40.99-28.413 60.553-43.784l-0.466 6.055 2.329-7.453c2.329 2.329 4.192 0.466 5.124-0.931 2.795-4.658 6.521-9.316 12.577-13.508-7.453 20.029-16.303 35.866-27.482 48.908l-4.658 5.59c0 3.261-0.932 7.453-4.658 7.918-1.863 0.466-5.59-0.932-8.384 1.863-1.397 1.863 3.261 5.59-0.466 2.795-3.261-2.329-6.521 0-10.248 0.932-2.795 0.932 1.863 3.726 2.795 5.589 0.932 1.863 1.863 3.726 1.398 6.056l-5.124-5.59c-6.055 3.261-9.782 9.316-14.906 13.974-2.329 1.863-1.397 5.124-1.397 7.918-3.261 0-6.987-0.932-8.85 0.932-1.397 1.863-0.932 4.658-0.932 7.453-4.658-0.466-5.124-7.453-9.315-6.056-4.192 0.932-8.85 1.397-12.577 3.727 2.795 5.59-4.658 2.329-3.726 3.26-6.987-4.192-13.042-7.453-20.495-4.658-15.837-5.124-35.4-2.795-49.84-0.931 0-2.329 0.466-4.658-0.466-5.124-0.932 2.329-3.726 1.397-3.26 1.397-8.85-6.055-17.7-9.782-27.016-14.905-8.384 0.932-16.303-3.261-18.632-5.59-6.521-6.055-13.974-2.795-20.029-4.192-13.042-3.261-17.7-16.769-19.098-26.084-0.932-4.658-4.658-6.521-6.055-6.056-6.055-19.563-15.371-37.263-22.824-55.429-1.863-4.658-1.397-9.316-1.397-14.44 2.329 0.932 4.658 0.466 4.192-2.794-2.329-15.371-7.918-27.016-13.974-38.195 3.261-15.837 3.726-34.469 11.179-48.443 6.521-12.576 18.632-19.098 27.016-29.811 2.795-3.726 2.795-8.85 5.59-12.11 9.316-9.316 18.632-19.098 28.879-27.482 4.658-3.726 10.247 0 17.234-1.397 2.329-8.384 11.645-15.837 20.495-13.508 3.726 0.932 11.179-8.85 13.508-9.782 3.726-1.397 1.863 3.726 1.863 6.987 8.85-6.987 20.961-10.713 32.14-14.906" fill="black" fill-rule="nonzero" stroke="none" stroke-width="1" stroke-linecap="butt" stroke-linejoin="miter" stroke-miterlimit="10" stroke-dasharray="" stroke-dashoffset="0" font-family="none" font-weight="none" font-size="none" text-anchor="none" style="mix-blend-mode: normal"></path></g><g transform="matrix(1,0,0,1,94.13667860460848,90)"><svg viewBox="0 0 131.72664279078305 180" height="180" width="131.72664279078305"><g><svg viewBox="0 0 192 262.3615030931174" height="180" width="131.72664279078305"><g><svg viewBox="0 0 192 262.3615030931174" height="262.3615030931174" width="192"><g id="SvgjsG3655"><svg viewBox="0 0 192 262.3615030931174" height="262.3615030931174" width="192" id="SvgjsSvg3654"><g><svg viewBox="0 0 192 171.91902834008096" height="171.91902834008096" width="192"><g transform="matrix(1,0,0,1,0,0)"><svg width="192" viewBox="0.22 -32.4 36.18 32.4" height="171.91902834008096" data-palette-color="url(#12895ae9-e20a-44f6-a992-5e53308a0334)"><g class="wordmark-text-0" data-fill-palette-color="primary" id="SvgjsG3653"><path d="M25.49 0L24.12-3.54 13.53-3.54 15.77-9.96 21.63-9.96 12.96-32.4 23.49-32.4 36.4 0 25.49 0ZM16.58-18.07L10.64 0 0.22 0 11.79-30.93 16.58-18.07Z" fill="black"></path></g></svg></g></svg></g><g transform="matrix(1,0,0,1,0,212.5049848744939)"><svg viewBox="0 0 192 49.85651821862347" height="49.85651821862347" width="192"><g transform="matrix(1,0,0,1,0,0)"><svg width="192" viewBox="2.5 -39.65 194.48 50.5" height="49.85651821862347" data-palette-color="url(#ccc985dc-7c8f-4831-9d7f-a233a4a5be4f)"><path d="M24.35-34.55L24.35-9.7Q24.35-5.15 21.53-2.23 18.7 0.7 13.45 0.7L13.45 0.7Q8.1 0.7 5.3-2.18 2.5-5.05 2.5-9.7L2.5-9.7 2.5-34.55 8.85-34.55 8.85-10Q8.85-7.1 9.95-5.68 11.05-4.25 13.45-4.25L13.45-4.25Q15.8-4.25 16.9-5.68 18-7.1 18-10L18-10 18-34.55 24.35-34.55ZM57.96-27.15Q61.86-27.15 63.86-23.58 65.86-20 65.86-13.3L65.86-13.3Q65.86-6.8 63.58-3.03 61.31 0.75 57.26 0.75L57.26 0.75Q54.06 0.75 51.91-2.1L51.91-2.1 51.91 10.15 45.76 10.85 45.76-26.45 51.21-26.45 51.46-23.25Q52.76-25.25 54.36-26.2 55.96-27.15 57.96-27.15L57.96-27.15ZM55.61-3.95Q57.51-3.95 58.51-6.13 59.51-8.3 59.51-13.25L59.51-13.25Q59.51-18.45 58.66-20.5 57.81-22.55 56.01-22.55L56.01-22.55Q53.71-22.55 51.91-19.25L51.91-19.25 51.91-6.45Q53.51-3.95 55.61-3.95L55.61-3.95ZM98.16-27.1Q99.31-27.1 100.21-26.75L100.21-26.75 99.21-20.85Q98.21-21.1 97.36-21.1L97.36-21.1Q95.46-21.1 94.36-19.45 93.26-17.8 92.66-14.55L92.66-14.55 92.66 0 86.51 0 86.51-26.45 91.86-26.45 92.31-21.85Q94.16-27.1 98.16-27.1L98.16-27.1ZM137.97-13.85Q137.97-13.4 137.82-11.3L137.82-11.3 124.17-11.3Q124.37-7.2 125.59-5.58 126.82-3.95 129.07-3.95L129.07-3.95Q130.62-3.95 131.87-4.48 133.12-5 134.57-6.15L134.57-6.15 137.12-2.65Q133.62 0.75 128.72 0.75L128.72 0.75Q123.52 0.75 120.74-2.85 117.97-6.45 117.97-13L117.97-13Q117.97-19.55 120.62-23.35 123.27-27.15 128.12-27.15L128.12-27.15Q132.77-27.15 135.37-23.78 137.97-20.4 137.97-13.85L137.97-13.85ZM131.97-15.3L131.97-15.65Q131.97-19.4 131.07-21.13 130.17-22.85 128.17-22.85L128.17-22.85Q126.32-22.85 125.34-21.18 124.37-19.5 124.17-15.3L124.17-15.3 131.97-15.3ZM169.47-5L171.62-1.2Q169.17 0.75 165.87 0.75L165.87 0.75Q162.42 0.75 160.62-1.23 158.82-3.2 158.82-6.6L158.82-6.6 158.82-22 155.72-22 155.72-26.45 158.82-26.45 158.82-32.3 164.97-33.05 164.97-26.45 169.97-26.45 169.37-22 164.97-22 164.97-6.6Q164.97-4.2 167.02-4.2L167.02-4.2Q167.67-4.2 168.17-4.38 168.67-4.55 169.47-5L169.47-5ZM190.23-26.45L196.38-26.45 196.38 0 190.23 0 190.23-26.45ZM193.28-39.65Q194.93-39.65 195.95-38.6 196.98-37.55 196.98-35.9L196.98-35.9Q196.98-34.3 195.95-33.25 194.93-32.2 193.28-32.2L193.28-32.2Q191.63-32.2 190.6-33.25 189.58-34.3 189.58-35.9L189.58-35.9Q189.58-37.55 190.6-38.6 191.63-39.65 193.28-39.65L193.28-39.65Z" opacity="1" transform="matrix(1,0,0,1,0,0)" fill="black" class="slogan-text-1" id="SvgjsPath3652"></path></svg></g></svg></g></svg></g></svg></g><g></g></svg></g></svg></g></svg></g><defs><mask></mask></defs></svg><rect width="320" height="360" fill="black" stroke="none" visibility="hidden"></rect></g></mask></svg><rect width="320" height="360" fill="black" stroke="none" visibility="hidden"></rect></g></mask><linearGradient x1="0" x2="1" y1="0.5" y2="0.5" id="ccc985dc-7c8f-4831-9d7f-a233a4a5be4f"><stop stop-color="#ffa62e" offset="0"></stop><stop stop-color="#f71b3d" offset="1"></stop></linearGradient><rect width="320.0000000000001" height="360" fill="url(#ccc985dc-7c8f-4831-9d7f-a233a4a5be4f)" mask="url(#436c783b-5789-4af5-898e-119d5516beb5)" data-fill-palette-color="secondary"></rect></svg><rect width="320" height="360" fill="none" stroke="none" visibility="hidden"></rect></g></svg></g></svg>